<?xml version="1.0" encoding="UTF-8" standalone="no"?><svg xmlns="http://www.w3.org/2000/svg" xmlns:xlink="http://www.w3.org/1999/xlink" contentScriptType="application/ecmascript" contentStyleType="text/css" height="623px" preserveAspectRatio="none" style="width:645px;height:623px;" version="1.1" viewBox="0 0 645 623" width="645px" zoomAndPan="magnify"><defs><filter height="300%" id="f17il7nbq2ribh" width="300%" x="-1" y="-1"><feGaussianBlur result="blurOut" stdDeviation="2.0"/><feColorMatrix in="blurOut" result="blurOut2" type="matrix" values="0 0 0 0 0 0 0 0 0 0 0 0 0 0 0 0 0 0 .4 0"/><feOffset dx="4.0" dy="4.0" in="blurOut2" result="blurOut3"/><feBlend in="SourceGraphic" in2="blurOut3" mode="normal"/></filter></defs><g><!--MD5=[57ee2d91d56982df760d2a6bcf4816b8]
entity Signed Customer--><ellipse cx="60.5" cy="14" fill="#FEFECE" filter="url(#f17il7nbq2ribh)" rx="8" ry="8" style="stroke:#A80036;stroke-width:1.5;"/><path d="M60.5,22 L60.5,49 M47.5,30 L73.5,30 M60.5,49 L47.5,64 M60.5,49 L73.5,64 " fill="none" filter="url(#f17il7nbq2ribh)" style="stroke:#A80036;stroke-width:1.5;"/><text fill="#000000" font-family="sans-serif" font-size="14" lengthAdjust="spacing" textLength="109" x="6" y="84.0332">Signed Customer</text><!--MD5=[ae78ca0dd1f49bdd788e5556d70823ac]
entity Customer--><ellipse cx="60.5" cy="132" fill="#FEFECE" filter="url(#f17il7nbq2ribh)" rx="8" ry="8" style="stroke:#A80036;stroke-width:1.5;"/><path d="M60.5,140 L60.5,167 M47.5,148 L73.5,148 M60.5,167 L47.5,182 M60.5,167 L73.5,182 " fill="none" filter="url(#f17il7nbq2ribh)" style="stroke:#A80036;stroke-width:1.5;"/><text fill="#000000" font-family="sans-serif" font-size="14" lengthAdjust="spacing" textLength="61" x="30" y="202.0332">Customer</text><!--MD5=[626ff6ece95d570cc2519224441d60ff]
entity Cashier--><ellipse cx="60.5" cy="250" fill="#FEFECE" filter="url(#f17il7nbq2ribh)" rx="8" ry="8" style="stroke:#A80036;stroke-width:1.5;"/><path d="M60.5,258 L60.5,285 M47.5,266 L73.5,266 M60.5,285 L47.5,300 M60.5,285 L73.5,300 " fill="none" filter="url(#f17il7nbq2ribh)" style="stroke:#A80036;stroke-width:1.5;"/><text fill="#000000" font-family="sans-serif" font-size="14" lengthAdjust="spacing" textLength="49" x="36" y="320.0332">Cashier</text><!--MD5=[cade383c679c4100475c230cbe0e5423]
entity Employee--><ellipse cx="60.5" cy="368" fill="#FEFECE" filter="url(#f17il7nbq2ribh)" rx="8" ry="8" style="stroke:#A80036;stroke-width:1.5;"/><path d="M60.5,376 L60.5,403 M47.5,384 L73.5,384 M60.5,403 L47.5,418 M60.5,403 L73.5,418 " fill="none" filter="url(#f17il7nbq2ribh)" style="stroke:#A80036;stroke-width:1.5;"/><text fill="#000000" font-family="sans-serif" font-size="14" lengthAdjust="spacing" textLength="62" x="29.5" y="438.0332">Employee</text><!--MD5=[327d8b0cc9017ef0d2f4054fa6547e20]
entity Manager--><ellipse cx="60.5" cy="486" fill="#FEFECE" filter="url(#f17il7nbq2ribh)" rx="8" ry="8" style="stroke:#A80036;stroke-width:1.5;"/><path d="M60.5,494 L60.5,521 M47.5,502 L73.5,502 M60.5,521 L47.5,536 M60.5,521 L73.5,536 " fill="none" filter="url(#f17il7nbq2ribh)" style="stroke:#A80036;stroke-width:1.5;"/><text fill="#000000" font-family="sans-serif" font-size="14" lengthAdjust="spacing" textLength="56" x="32.5" y="556.0332">Manager</text><!--MD5=[f3733374a043e7c805745e1d854e1c42]
entity Product--><ellipse cx="199.5" cy="427" fill="#FEFECE" filter="url(#f17il7nbq2ribh)" rx="8" ry="8" style="stroke:#A80036;stroke-width:1.5;"/><path d="M199.5,435 L199.5,462 M186.5,443 L212.5,443 M199.5,462 L186.5,477 M199.5,462 L212.5,477 " fill="none" filter="url(#f17il7nbq2ribh)" style="stroke:#A80036;stroke-width:1.5;"/><text fill="#000000" font-family="sans-serif" font-size="14" lengthAdjust="spacing" textLength="49" x="175" y="497.0332">Product</text><!--MD5=[fee662a292a0353a69bd162820bae93b]
entity User--><ellipse cx="199.5" cy="309" fill="#FEFECE" filter="url(#f17il7nbq2ribh)" rx="8" ry="8" style="stroke:#A80036;stroke-width:1.5;"/><path d="M199.5,317 L199.5,344 M186.5,325 L212.5,325 M199.5,344 L186.5,359 M199.5,344 L212.5,359 " fill="none" filter="url(#f17il7nbq2ribh)" style="stroke:#A80036;stroke-width:1.5;"/><text fill="#000000" font-family="sans-serif" font-size="14" lengthAdjust="spacing" textLength="29" x="185" y="379.0332">User</text><!--MD5=[ba77eadd850e6466a80c3c4e2807195b]
entity Inventory system and catalogue--><ellipse cx="538" cy="191" fill="#FEFECE" filter="url(#f17il7nbq2ribh)" rx="8" ry="8" style="stroke:#A80036;stroke-width:1.5;"/><path d="M538,199 L538,226 M525,207 L551,207 M538,226 L525,241 M538,226 L551,241 " fill="none" filter="url(#f17il7nbq2ribh)" style="stroke:#A80036;stroke-width:1.5;"/><text fill="#000000" font-family="sans-serif" font-size="14" lengthAdjust="spacing" textLength="200" x="438" y="261.0332">Inventory system and catalogue</text><!--MD5=[933bc476eff239bdbb698df7aa2984a3]
entity Credit card System--><ellipse cx="538" cy="309" fill="#FEFECE" filter="url(#f17il7nbq2ribh)" rx="8" ry="8" style="stroke:#A80036;stroke-width:1.5;"/><path d="M538,317 L538,344 M525,325 L551,325 M538,344 L525,359 M538,344 L551,359 " fill="none" filter="url(#f17il7nbq2ribh)" style="stroke:#A80036;stroke-width:1.5;"/><text fill="#000000" font-family="sans-serif" font-size="14" lengthAdjust="spacing" textLength="120" x="478" y="379.0332">Credit card System</text><!--MD5=[caeaee1b60bed290935088d0f94c5977]
entity Report--><ellipse cx="538" cy="427" fill="#FEFECE" filter="url(#f17il7nbq2ribh)" rx="8" ry="8" style="stroke:#A80036;stroke-width:1.5;"/><path d="M538,435 L538,462 M525,443 L551,443 M538,462 L525,477 M538,462 L551,477 " fill="none" filter="url(#f17il7nbq2ribh)" style="stroke:#A80036;stroke-width:1.5;"/><text fill="#000000" font-family="sans-serif" font-size="14" lengthAdjust="spacing" textLength="43" x="516.5" y="497.0332">Report</text><!--MD5=[83f83092a39babef15ea0c4cee79c9e4]
entity Runner Employee--><ellipse cx="538" cy="545" fill="#FEFECE" filter="url(#f17il7nbq2ribh)" rx="8" ry="8" style="stroke:#A80036;stroke-width:1.5;"/><path d="M538,553 L538,580 M525,561 L551,561 M538,580 L525,595 M538,580 L551,595 " fill="none" filter="url(#f17il7nbq2ribh)" style="stroke:#A80036;stroke-width:1.5;"/><text fill="#000000" font-family="sans-serif" font-size="14" lengthAdjust="spacing" textLength="113" x="481.5" y="615.0332">Runner Employee</text><ellipse cx="330.9051" cy="399.97" fill="#FEFECE" filter="url(#f17il7nbq2ribh)" rx="46.9051" ry="15.47" style="stroke:#A80036;stroke-width:1.5;"/><text fill="#000000" font-family="sans-serif" font-size="14" lengthAdjust="spacing" textLength="50" x="304.2227" y="404.1764">EZShop</text><!--MD5=[88d6e36ed2577bd7f3e7ac9374ca086e]
link Product to EZShop--><path d="M224.25,448.18 C246.3,438.13 279.13,423.18 302.35,412.6 " fill="none" id="Product-EZShop" style="stroke:#A80036;stroke-width:1.0;"/><!--MD5=[18aba436ca17b6514dbbc455b3424abb]
link Signed Customer to Customer--><path d="M60.5,87.59 C60.5,92.35 60.5,97.11 60.5,101.86 " fill="none" id="Signed Customer-to-Customer" style="stroke:#A80036;stroke-width:1.0;"/><polygon fill="none" points="67.5,102.05,60.5,122.05,53.5,102.05,67.5,102.05" style="stroke:#A80036;stroke-width:1.0;"/><!--MD5=[6414565bda2732f9b0501b8c9fbd7295]
link Customer to User--><path d="M91.1,195.23 C99.08,204.02 107.56,213.73 115,223 C135.8,248.92 157.42,279.6 173.45,303.18 " fill="none" id="Customer-to-User" style="stroke:#A80036;stroke-width:1.0;"/><polygon fill="none" points="179.4,299.48,184.75,319.98,167.78,307.29,179.4,299.48" style="stroke:#A80036;stroke-width:1.0;"/><!--MD5=[e20187d0f4e4a0da9eef4e83751d8dbb]
link Cashier to User--><path d="M85.05,292.14 C107.41,301.77 141.21,316.33 166.11,327.05 " fill="none" id="Cashier-to-User" style="stroke:#A80036;stroke-width:1.0;"/><polygon fill="none" points="169.23,320.77,184.83,335.11,163.69,333.63,169.23,320.77" style="stroke:#A80036;stroke-width:1.0;"/><!--MD5=[22fb9506fac029fc1d2ae00f0eb8d606]
link Employee to User--><path d="M91.57,387.05 C113.64,377.54 143.6,364.64 166.19,354.91 " fill="none" id="Employee-to-User" style="stroke:#A80036;stroke-width:1.0;"/><polygon fill="none" points="163.62,348.4,184.76,346.92,169.16,361.26,163.62,348.4" style="stroke:#A80036;stroke-width:1.0;"/><!--MD5=[6eb6e197a729f6ec2412743e0bdbca1d]
link Manager to User--><path d="M88.61,489.5 C97.29,480.01 106.78,469.25 115,459 C135.8,433.08 157.42,402.4 173.45,378.82 " fill="none" id="Manager-to-User" style="stroke:#A80036;stroke-width:1.0;"/><polygon fill="none" points="167.78,374.71,184.75,362.02,179.4,382.52,167.78,374.71" style="stroke:#A80036;stroke-width:1.0;"/><!--MD5=[ffee829e107a2c89292f165cce7531ba]
link User to EZShop--><path d="M214.36,347.31 C235.37,356.89 275.69,375.26 302.72,387.57 " fill="none" id="User-EZShop" style="stroke:#A80036;stroke-width:1.0;"/><!--MD5=[0bba990871b8b4f873dcd1c1bb10eb4c]
link EZShop to Credit card System--><path d="M367.24,389.86 C397.58,381.13 441.99,368.35 477.78,358.05 " fill="none" id="EZShop-Credit card System" style="stroke:#A80036;stroke-width:1.0;"/><!--MD5=[bd90c8a381c6d425ca26d2ed4f20991c]
link EZShop to Inventory system and catalogue--><path d="M343.15,384.89 C361.23,361.06 398.86,314.18 438,282 C445.34,275.96 453.37,270.14 461.57,264.65 " fill="none" id="EZShop-Inventory system and catalogue" style="stroke:#A80036;stroke-width:1.0;"/><!--MD5=[a6a9a8cc3c8de517b3a509177352dd8d]
link EZShop to Report--><path d="M367.24,410.14 C410.17,422.5 481.28,442.96 516.26,453.03 " fill="none" id="EZShop-Report" style="stroke:#A80036;stroke-width:1.0;"/><!--MD5=[ad33ff8ff25668a053d46fb477151098]
link EZShop to Runner Employee--><path d="M343.15,415.11 C361.23,438.94 398.86,485.82 438,518 C451.21,528.87 466.64,539.05 481.34,547.81 " fill="none" id="EZShop-Runner Employee" style="stroke:#A80036;stroke-width:1.0;"/><!--MD5=[561d9268fe99a9b93a99f0fa3adc41c6]
@startuml Context_Diagram

left to right direction

actor :Signed Customer:
actor Customer
actor Cashier
actor Employee
actor Manager
actor Product
actor User
actor :Inventory system and catalogue:
actor :Credit card System:
actor Report
actor :Runner Employee:


Product - - (EZShop)
:Signed Customer: -|> Customer
Customer - -|> User
Cashier - -|> User
Employee - -|> User
Manager - -|> User

User - - (EZShop)

(EZShop) - - :Credit card System:
(EZShop) - - :Inventory system and catalogue:
(EZShop) - - Report
(EZShop) - - :Runner Employee:
@enduml

PlantUML version 1.2021.00(Sun Jan 10 11:25:05 CET 2021)
(GPL source distribution)
Java Runtime: OpenJDK Runtime Environment
JVM: OpenJDK 64-Bit Server VM
Default Encoding: Cp1252
Language: it
Country: IT
--></g></svg>