<?xml version="1.0" encoding="UTF-8" standalone="no"?><svg xmlns="http://www.w3.org/2000/svg" xmlns:xlink="http://www.w3.org/1999/xlink" contentScriptType="application/ecmascript" contentStyleType="text/css" height="423px" preserveAspectRatio="none" style="width:1128px;height:423px;" version="1.1" viewBox="0 0 1128 423" width="1128px" zoomAndPan="magnify"><defs><filter height="300%" id="fs00z5kvrp38b" width="300%" x="-1" y="-1"><feGaussianBlur result="blurOut" stdDeviation="2.0"/><feColorMatrix in="blurOut" result="blurOut2" type="matrix" values="0 0 0 0 0 0 0 0 0 0 0 0 0 0 0 0 0 0 .4 0"/><feOffset dx="4.0" dy="4.0" in="blurOut2" result="blurOut3"/><feBlend in="SourceGraphic" in2="blurOut3" mode="normal"/></filter></defs><g><!--MD5=[cade383c679c4100475c230cbe0e5423]
entity Employee--><ellipse cx="37" cy="102" fill="#FEFECE" filter="url(#fs00z5kvrp38b)" rx="8" ry="8" style="stroke:#A80036;stroke-width:1.5;"/><path d="M37,110 L37,137 M24,118 L50,118 M37,137 L24,152 M37,137 L50,152 " fill="none" filter="url(#fs00z5kvrp38b)" style="stroke:#A80036;stroke-width:1.5;"/><text fill="#000000" font-family="sans-serif" font-size="14" lengthAdjust="spacing" textLength="62" x="6" y="172.0332">Employee</text><!--MD5=[f3733374a043e7c805745e1d854e1c42]
entity Product--><ellipse cx="971.5" cy="157" fill="#FEFECE" filter="url(#fs00z5kvrp38b)" rx="8" ry="8" style="stroke:#A80036;stroke-width:1.5;"/><path d="M971.5,165 L971.5,192 M958.5,173 L984.5,173 M971.5,192 L958.5,207 M971.5,192 L984.5,207 " fill="none" filter="url(#fs00z5kvrp38b)" style="stroke:#A80036;stroke-width:1.5;"/><text fill="#000000" font-family="sans-serif" font-size="14" lengthAdjust="spacing" textLength="49" x="947" y="227.0332">Product</text><ellipse cx="211.4763" cy="134.0953" fill="#FEFECE" filter="url(#fs00z5kvrp38b)" rx="75.9763" ry="17.5953" style="stroke:#A80036;stroke-width:1.5;"/><text fill="#000000" font-family="sans-serif" font-size="14" lengthAdjust="spacing" textLength="104" x="156.5467" y="138.5957">Manage Product</text><ellipse cx="211.3351" cy="222.867" fill="#FEFECE" filter="url(#fs00z5kvrp38b)" rx="82.3351" ry="18.867" style="stroke:#A80036;stroke-width:1.5;"/><text fill="#000000" font-family="sans-serif" font-size="14" lengthAdjust="spacing" textLength="120" x="151.3351" y="226.5955">Login as Employee</text><ellipse cx="561.6774" cy="31.0355" fill="#FEFECE" filter="url(#fs00z5kvrp38b)" rx="113.1774" ry="25.0355" style="stroke:#A80036;stroke-width:1.5;"/><text fill="#000000" font-family="sans-serif" font-size="14" lengthAdjust="spacing" textLength="190" x="466.6774" y="34.764">Update inventory or catalogue</text><ellipse cx="561.7128" cy="124.0426" fill="#FEFECE" filter="url(#fs00z5kvrp38b)" rx="150.7128" ry="32.5426" style="stroke:#A80036;stroke-width:1.5;"/><text fill="#000000" font-family="sans-serif" font-size="14" lengthAdjust="spacing" textLength="270" x="426.7128" y="127.7711">Delete product from inventory or catalogue</text><ellipse cx="561.4721" cy="222.9944" fill="#FEFECE" filter="url(#fs00z5kvrp38b)" rx="145.4721" ry="31.4944" style="stroke:#A80036;stroke-width:1.5;"/><text fill="#000000" font-family="sans-serif" font-size="14" lengthAdjust="spacing" textLength="259" x="431.9721" y="226.7229">Insert product into inventory or catalogue</text><ellipse cx="561.602" cy="305.1136" fill="#FEFECE" filter="url(#fs00z5kvrp38b)" rx="64.602" ry="15.6136" style="stroke:#A80036;stroke-width:1.5;"/><text fill="#000000" font-family="sans-serif" font-size="14" lengthAdjust="spacing" textLength="74" x="521.602" y="309.6302">Apply Sales</text><ellipse cx="561.6128" cy="380.1226" fill="#FEFECE" filter="url(#fs00z5kvrp38b)" rx="108.6128" ry="24.1226" style="stroke:#A80036;stroke-width:1.5;"/><text fill="#000000" font-family="sans-serif" font-size="14" lengthAdjust="spacing" textLength="180" x="471.6128" y="383.8511">List all products in catalogue</text><ellipse cx="971.5214" cy="379.8043" fill="#FEFECE" filter="url(#fs00z5kvrp38b)" rx="144.5214" ry="31.3043" style="stroke:#A80036;stroke-width:1.5;"/><text fill="#000000" font-family="sans-serif" font-size="14" lengthAdjust="spacing" textLength="257" x="843.0214" y="383.5328">Search product in inventory or catalogue</text><!--MD5=[c4ee6d5eeb6d3c00f29bd2b9da57f470]
link Employee to Manage Product--><path d="M68.05,134 C85.37,134 108.04,134 130.19,134 " fill="none" id="Employee-to-Manage Product" style="stroke:#A80036;stroke-width:1.0;"/><polygon fill="#A80036" points="135.21,134,126.21,130,130.21,134,126.21,138,135.21,134" style="stroke:#A80036;stroke-width:1.0;"/><!--MD5=[52e3bc91880c5c833c57abca730e5686]
link Manage Product to Login as Employee--><path d="M211.5,151.76 C211.5,165.14 211.5,183.63 211.5,198.42 " fill="none" id="Manage Product-to-Login as Employee" style="stroke:#A80036;stroke-width:1.0;stroke-dasharray:7.0,7.0;"/><polygon fill="#A80036" points="211.5,203.69,215.5,194.69,211.5,198.69,207.5,194.69,211.5,203.69" style="stroke:#A80036;stroke-width:1.0;"/><text fill="#000000" font-family="sans-serif" font-size="13" lengthAdjust="spacing" textLength="55" x="172" y="183.2451">«include»</text><!--MD5=[b6ca3fdc87ec225d1aeefef1847ad984]
link Login as Employee to Update inventory or catalogue--><path d="M240.87,205.16 C256.75,194.94 276.76,181.66 294,169 C347.98,129.34 351.62,104.99 411,74 C430.39,63.88 452.48,55.86 473.62,49.62 " fill="none" id="Login as Employee-to-Update inventory or catalogue" style="stroke:#A80036;stroke-width:1.0;stroke-dasharray:7.0,7.0;"/><polygon fill="#A80036" points="478.68,48.15,468.9237,46.8032,473.8762,49.5368,471.1426,54.4893,478.68,48.15" style="stroke:#A80036;stroke-width:1.0;"/><text fill="#000000" font-family="sans-serif" font-size="13" lengthAdjust="spacing" textLength="55" x="325" y="90.4951">«include»</text><!--MD5=[22428fe62a363bb0015a65354a1da0b8]
link Login as Employee to Delete product from inventory or catalogue--><path d="M264.22,208.29 C316.91,193.3 399.83,169.71 464.57,151.29 " fill="none" id="Login as Employee-to-Delete product from inventory or catalogue" style="stroke:#A80036;stroke-width:1.0;stroke-dasharray:7.0,7.0;"/><polygon fill="#A80036" points="469.59,149.86,459.8374,148.4864,464.7824,151.2336,462.0352,156.1786,469.59,149.86" style="stroke:#A80036;stroke-width:1.0;"/><text fill="#000000" font-family="sans-serif" font-size="13" lengthAdjust="spacing" textLength="55" x="325" y="173.4951">«include»</text><!--MD5=[eb08af28c4072d64920145afed6073c1]
link Login as Employee to Insert product into inventory or catalogue--><path d="M294.09,223 C328.79,223 370.41,223 410.32,223 " fill="none" id="Login as Employee-to-Insert product into inventory or catalogue" style="stroke:#A80036;stroke-width:1.0;stroke-dasharray:7.0,7.0;"/><polygon fill="#A80036" points="415.68,223,406.68,219,410.68,223,406.68,227,415.68,223" style="stroke:#A80036;stroke-width:1.0;"/><text fill="#000000" font-family="sans-serif" font-size="13" lengthAdjust="spacing" textLength="55" x="325" y="219.4951">«include»</text><!--MD5=[705c4cf2ce4801ff0ae10e18dad772bd]
link Login as Employee to Apply Sales--><path d="M267.6,236.99 C307.39,247 362.44,260.65 411,272 C443.05,279.49 479.08,287.46 507.73,293.69 " fill="none" id="Login as Employee-to-Apply Sales" style="stroke:#A80036;stroke-width:1.0;stroke-dasharray:7.0,7.0;"/><polygon fill="#A80036" points="512.63,294.75,504.6795,288.9371,507.7431,293.6926,502.9876,296.7562,512.63,294.75" style="stroke:#A80036;stroke-width:1.0;"/><text fill="#000000" font-family="sans-serif" font-size="13" lengthAdjust="spacing" textLength="55" x="325" y="249.4951">«include»</text><!--MD5=[c1e4731cbb7899339ca1e4e4adc15168]
link Login as Employee to List all products in catalogue--><path d="M241.13,241.03 C263.51,254.98 295.49,274.62 324,291 C362.11,312.89 370.26,321.51 411,338 C433.4,347.07 458.44,354.93 481.52,361.33 " fill="none" id="Login as Employee-to-List all products in catalogue" style="stroke:#A80036;stroke-width:1.0;stroke-dasharray:7.0,7.0;"/><polygon fill="#A80036" points="486.42,362.67,478.8084,356.4199,481.6002,361.3399,476.6802,364.1317,486.42,362.67" style="stroke:#A80036;stroke-width:1.0;"/><text fill="#000000" font-family="sans-serif" font-size="13" lengthAdjust="spacing" textLength="55" x="325" y="287.4951">«include»</text><!--MD5=[5b354eb62e133f96934e130dc1f88c03]
link List all products in catalogue to Search product in inventory or catalogue--><path d="M670.23,380 C716.57,380 771.5,380 821.63,380 " fill="none" id="List all products in catalogue-to-Search product in inventory or catalogue" style="stroke:#A80036;stroke-width:1.0;stroke-dasharray:7.0,7.0;"/><polygon fill="#A80036" points="826.78,380,817.78,376,821.78,380,817.78,384,826.78,380" style="stroke:#A80036;stroke-width:1.0;"/><text fill="#000000" font-family="sans-serif" font-size="13" lengthAdjust="spacing" textLength="53" x="743" y="376.4951">«extend»</text><!--MD5=[8bb76f91b338df7c77ba131924570acb]
link Update inventory or catalogue to Product--><path d="M635.77,49.89 C660.24,56.77 687.51,65.08 712,74 C797.67,105.21 895.01,151.62 942.06,174.78 " fill="none" id="Update inventory or catalogue-to-Product" style="stroke:#A80036;stroke-width:1.0;"/><polygon fill="#A80036" points="946.72,177.08,940.4009,169.5256,942.2308,174.8783,936.8782,176.7083,946.72,177.08" style="stroke:#A80036;stroke-width:1.0;"/><!--MD5=[ef8684c637097f42e18d374a60112491]
link Delete product from inventory or catalogue to Product--><path d="M682.98,143.19 C772.73,157.49 888.55,175.94 941.62,184.4 " fill="none" id="Delete product from inventory or catalogue-to-Product" style="stroke:#A80036;stroke-width:1.0;"/><polygon fill="#A80036" points="946.86,185.23,938.5996,179.8667,941.922,184.4451,937.3436,187.7675,946.86,185.23" style="stroke:#A80036;stroke-width:1.0;"/><!--MD5=[0f2ed1b6e543b84b68d60b469168d4c4]
link Insert product into inventory or catalogue to Product--><path d="M697.51,211.75 C784.82,204.47 891.25,195.6 941.53,191.41 " fill="none" id="Insert product into inventory or catalogue-to-Product" style="stroke:#A80036;stroke-width:1.0;"/><polygon fill="#A80036" points="946.8,190.97,937.4989,187.7312,941.8173,191.3852,938.1633,195.7036,946.8,190.97" style="stroke:#A80036;stroke-width:1.0;"/><!--MD5=[a49cb2c141472e32581126898ae63ff7]
link Apply Sales to Product--><path d="M611.94,295.3 C641.2,289.26 678.9,280.95 712,272 C796.51,249.16 894.46,215.77 941.87,199.16 " fill="none" id="Apply Sales-to-Product" style="stroke:#A80036;stroke-width:1.0;"/><polygon fill="#A80036" points="946.84,197.42,937.0228,196.631,942.1229,199.0781,939.6758,204.1783,946.84,197.42" style="stroke:#A80036;stroke-width:1.0;"/><!--MD5=[a99d64e9edb65958b7eb1cd93513aa51]
@startuml Manage Products

left to right direction

actor Employee
actor Product

Employee - -> (Manage Product)
(Manage Product) .> (Login as Employee) : <<include>>
(Login as Employee) ..> (Update inventory or catalogue) : <<include>>
(Login as Employee) ..> (Delete product from inventory or catalogue) : <<include>>
(Login as Employee) ..> (Insert product into inventory or catalogue) : <<include>>
(Login as Employee) ..> (Apply Sales) : <<include>>
(Login as Employee) ..> (List all products in catalogue) : <<include>>
(List all products in catalogue) ..> (Search product in inventory or catalogue) : <<extend>>

(Update inventory or catalogue) - -> Product
(Delete product from inventory or catalogue) - -> Product
(Insert product into inventory or catalogue) - -> Product
(Apply Sales) - -> Product
@enduml

PlantUML version 1.2021.00(Sun Jan 10 11:25:05 CET 2021)
(GPL source distribution)
Java Runtime: OpenJDK Runtime Environment
JVM: OpenJDK 64-Bit Server VM
Default Encoding: Cp1252
Language: it
Country: IT
--></g></svg>