<?xml version="1.0" encoding="UTF-8" standalone="no"?><svg xmlns="http://www.w3.org/2000/svg" xmlns:xlink="http://www.w3.org/1999/xlink" contentScriptType="application/ecmascript" contentStyleType="text/css" height="576px" preserveAspectRatio="none" style="width:1552px;height:576px;" version="1.1" viewBox="0 0 1552 576" width="1552px" zoomAndPan="magnify"><defs><filter height="300%" id="f14c8tm110v3z2" width="300%" x="-1" y="-1"><feGaussianBlur result="blurOut" stdDeviation="2.0"/><feColorMatrix in="blurOut" result="blurOut2" type="matrix" values="0 0 0 0 0 0 0 0 0 0 0 0 0 0 0 0 0 0 .4 0"/><feOffset dx="4.0" dy="4.0" in="blurOut2" result="blurOut3"/><feBlend in="SourceGraphic" in2="blurOut3" mode="normal"/></filter></defs><g><!--MD5=[ae78ca0dd1f49bdd788e5556d70823ac]
entity Customer--><ellipse cx="40" cy="77" fill="#FEFECE" filter="url(#f14c8tm110v3z2)" rx="8" ry="8" style="stroke:#A80036;stroke-width:1.5;"/><path d="M40,85 L40,112 M27,93 L53,93 M40,112 L27,127 M40,112 L53,127 " fill="none" filter="url(#f14c8tm110v3z2)" style="stroke:#A80036;stroke-width:1.5;"/><text fill="#000000" font-family="sans-serif" font-size="14" lengthAdjust="spacingAndGlyphs" textLength="68" x="6" y="145.4951">Customer</text><!--MD5=[c946910ca26a415ecb77b3699877df73]
entity CustomerManager--><ellipse cx="553.5" cy="116" fill="#FEFECE" filter="url(#f14c8tm110v3z2)" rx="8" ry="8" style="stroke:#A80036;stroke-width:1.5;"/><path d="M553.5,124 L553.5,151 M540.5,132 L566.5,132 M553.5,151 L540.5,166 M553.5,151 L566.5,166 " fill="none" filter="url(#f14c8tm110v3z2)" style="stroke:#A80036;stroke-width:1.5;"/><text fill="#000000" font-family="sans-serif" font-size="14" lengthAdjust="spacingAndGlyphs" textLength="128" x="489.5" y="184.4951">CustomerManager</text><!--MD5=[d15af35880b199b5a6d6e8b6c5864ca0]
entity Employ--><ellipse cx="854" cy="69" fill="#FEFECE" filter="url(#f14c8tm110v3z2)" rx="8" ry="8" style="stroke:#A80036;stroke-width:1.5;"/><path d="M854,77 L854,104 M841,85 L867,85 M854,104 L841,119 M854,104 L867,119 " fill="none" filter="url(#f14c8tm110v3z2)" style="stroke:#A80036;stroke-width:1.5;"/><text fill="#000000" font-family="sans-serif" font-size="14" lengthAdjust="spacingAndGlyphs" textLength="50" x="829" y="137.4951">Employ</text><ellipse cx="240.5998" cy="108.22" fill="#FEFECE" filter="url(#f14c8tm110v3z2)" rx="86.5998" ry="19.72" style="stroke:#A80036;stroke-width:1.5;"/><text fill="#000000" font-family="sans-serif" font-size="14" lengthAdjust="spacingAndGlyphs" textLength="146" x="167.5998" y="112.8684">Fidelity Card Request</text><ellipse cx="240.4496" cy="185.9899" fill="#FEFECE" filter="url(#f14c8tm110v3z2)" rx="105.4496" ry="23.4899" style="stroke:#A80036;stroke-width:1.5;"/><text fill="#000000" font-family="sans-serif" font-size="14" lengthAdjust="spacingAndGlyphs" textLength="188" x="146.4496" y="190.6384">Request to use fidelity card</text><ellipse cx="853.7901" cy="193.758" fill="#FEFECE" filter="url(#f14c8tm110v3z2)" rx="79.2901" ry="18.258" style="stroke:#A80036;stroke-width:1.5;"/><text fill="#000000" font-family="sans-serif" font-size="14" lengthAdjust="spacingAndGlyphs" textLength="129" x="789.2901" y="198.4065">Apply special offert</text><ellipse cx="853.9744" cy="283.8949" fill="#FEFECE" filter="url(#f14c8tm110v3z2)" rx="87.4744" ry="19.8949" style="stroke:#A80036;stroke-width:1.5;"/><text fill="#000000" font-family="sans-serif" font-size="14" lengthAdjust="spacingAndGlyphs" textLength="148" x="779.9744" y="288.5433">Update Fidelity points</text><ellipse cx="1467.0637" cy="129.0127" fill="#FEFECE" filter="url(#f14c8tm110v3z2)" rx="73.0637" ry="17.0127" style="stroke:#A80036;stroke-width:1.5;"/><text fill="#000000" font-family="sans-serif" font-size="14" lengthAdjust="spacingAndGlyphs" textLength="114" x="1410.0637" y="133.6612">Manage E-Wallet</text><path d="M1008,116.5 L1008,141.6328 L1333,141.6328 L1333,126.5 L1323,116.5 L1008,116.5 " fill="#FBFB77" filter="url(#f14c8tm110v3z2)" style="stroke:#A80036;stroke-width:1.0;"/><path d="M1323,116.5 L1323,126.5 L1333,126.5 L1323,116.5 " fill="#FBFB77" style="stroke:#A80036;stroke-width:1.0;"/><text fill="#000000" font-family="sans-serif" font-size="13" lengthAdjust="spacingAndGlyphs" textLength="304" x="1014" y="133.5669">Vouchers can be generated to load on E-Wallet.</text><path d="M407,223 L407,263.2656 A0,0 0 0 0 407,263.2656 L700,263.2656 A0,0 0 0 0 700,263.2656 L700,233 L690,223 L447.5885,223 L322.3282,200.9016 L439.5885,223 L407,223 A0,0 0 0 0 407,223 " fill="#FBFB77" filter="url(#f14c8tm110v3z2)" style="stroke:#A80036;stroke-width:1.0;"/><path d="M690,223 L690,233 L700,233 L690,223 " fill="#FBFB77" style="stroke:#A80036;stroke-width:1.0;"/><text fill="#000000" font-family="sans-serif" font-size="13" lengthAdjust="spacingAndGlyphs" textLength="268" x="413" y="240.0669">Use points of fidelity card for special offert</text><text fill="#000000" font-family="sans-serif" font-size="13" lengthAdjust="spacingAndGlyphs" textLength="199" x="413" y="255.1997">or generate shopping vouchers</text><ellipse cx="853.7771" cy="452.9554" fill="#FEFECE" filter="url(#f14c8tm110v3z2)" rx="92.7771" ry="20.9554" style="stroke:#A80036;stroke-width:1.5;"/><text fill="#000000" font-family="sans-serif" font-size="14" lengthAdjust="spacingAndGlyphs" textLength="160" x="773.7771" y="457.6039">Create new fidelity card</text><ellipse cx="853.7932" cy="544.9586" fill="#FEFECE" filter="url(#f14c8tm110v3z2)" rx="85.2932" ry="19.4586" style="stroke:#A80036;stroke-width:1.5;"/><text fill="#000000" font-family="sans-serif" font-size="14" lengthAdjust="spacingAndGlyphs" textLength="143" x="782.2932" y="549.6071">Insert data customer</text><ellipse cx="853.9431" cy="360.1886" fill="#FEFECE" filter="url(#f14c8tm110v3z2)" rx="91.4431" ry="20.6886" style="stroke:#A80036;stroke-width:1.5;"/><text fill="#000000" font-family="sans-serif" font-size="14" lengthAdjust="spacingAndGlyphs" textLength="157" x="775.4431" y="364.8371">Generate new E-Wallet</text><!--MD5=[48ace3a5978ce77991d415f7e7113aed]
link Customer to Fidelity Card Request--><path d="M74.0121,108 C94.6464,108 122.0574,108 148.6712,108 " fill="none" id="Customer-to-Fidelity Card Request" style="stroke:#A80036;stroke-width:1.0;"/><polygon fill="#A80036" points="153.9811,108,144.9811,104,148.9811,108,144.9811,112,153.9811,108" style="stroke:#A80036;stroke-width:1.0;"/><!--MD5=[d7a0b71fcec518ea308dddca81ecdc2c]
link Customer to Request to use fidelity card--><path d="M74.2959,121.3644 C92.3566,128.4005 114.8756,137.1706 135,145 C150.6007,151.0694 167.5009,157.6395 183.1082,163.7049 " fill="none" id="Customer-to-Request to use fidelity card" style="stroke:#A80036;stroke-width:1.0;"/><polygon fill="#A80036" points="187.9075,165.57,180.9677,158.5815,183.2471,163.7588,178.0698,166.0381,187.9075,165.57" style="stroke:#A80036;stroke-width:1.0;"/><!--MD5=[729a93985221b6c02fb4cf53c11655e1]
link Fidelity Card Request to CustomerManager--><path d="M316.2686,117.4408 C367.4318,123.8158 434.4474,132.166 484.1964,138.3647 " fill="none" id="Fidelity Card Request-to-CustomerManager" style="stroke:#A80036;stroke-width:1.0;"/><polygon fill="#A80036" points="489.2596,138.9956,480.8233,133.9134,484.298,138.3773,479.8341,141.852,489.2596,138.9956" style="stroke:#A80036;stroke-width:1.0;"/><!--MD5=[8ec85154d9424b9ed30248e4df33940a]
link Request to use fidelity card to CustomerManager--><path d="M332.7174,174.5097 C381.1615,168.4735 439.5521,161.198 484.1141,155.6455 " fill="none" id="Request to use fidelity card-to-CustomerManager" style="stroke:#A80036;stroke-width:1.0;"/><polygon fill="#A80036" points="489.2034,155.0114,479.7779,152.155,484.2418,155.6297,480.7671,160.0936,489.2034,155.0114" style="stroke:#A80036;stroke-width:1.0;"/><!--MD5=[0ee42023624f2b307db03b15e187a296]
link CustomerManager to Employ--><path d="M617.5962,136.975 C681.1268,127.0384 775.696,112.2472 823.6949,104.7399 " fill="none" id="CustomerManager-to-Employ" style="stroke:#A80036;stroke-width:1.0;"/><polygon fill="#A80036" points="828.7525,103.9489,819.2425,101.3878,823.8126,104.7216,820.4788,109.2917,828.7525,103.9489" style="stroke:#A80036;stroke-width:1.0;"/><!--MD5=[1121a901f83b0cfca39f714d2b392f59]
link CustomerManager to Apply special offert--><path d="M617.5962,157.025 C666.0905,164.6098 732.6698,175.0232 782.8169,182.8665 " fill="none" id="CustomerManager-to-Apply special offert" style="stroke:#A80036;stroke-width:1.0;"/><polygon fill="#A80036" points="787.924,183.6653,779.6503,178.3225,782.9841,182.8926,778.414,186.2264,787.924,183.6653" style="stroke:#A80036;stroke-width:1.0;"/><!--MD5=[8e333609a2eecedf9acb848493b48672]
link Apply special offert to Update Fidelity points--><path d="M854,212.5049 C854,225.7442 854,243.7356 854,258.3579 " fill="none" id="Apply special offert-to-Update Fidelity points" style="stroke:#A80036;stroke-width:1.0;stroke-dasharray:7.0,7.0;"/><polygon fill="#A80036" points="854,263.5776,858,254.5776,854,258.5776,850,254.5776,854,263.5776" style="stroke:#A80036;stroke-width:1.0;"/><text fill="#000000" font-family="sans-serif" font-size="13" lengthAdjust="spacingAndGlyphs" textLength="45" x="820" y="242.8169">include</text><!--MD5=[d0bf82768312e5ccfa410da0a34e109e]
link Apply special offert to Manage E-Wallet--><path d="M931.5327,198.1506 C1026.9232,201.644 1193.3937,202.4801 1333,176 C1366.0633,169.7287 1401.9658,156.7822 1428.2791,146.0622 " fill="none" id="Apply special offert-to-Manage E-Wallet" style="stroke:#A80036;stroke-width:1.0;stroke-dasharray:7.0,7.0;"/><polygon fill="#A80036" points="1433.0779,144.0886,1423.2329,143.8125,1428.4537,145.9904,1426.2758,151.2112,1433.0779,144.0886" style="stroke:#A80036;stroke-width:1.0;"/><text fill="#000000" font-family="sans-serif" font-size="13" lengthAdjust="spacingAndGlyphs" textLength="51" x="1145" y="172.0669">extends</text><!--MD5=[86136195a2fdac3f12952d2c6a369182]
link Apply special offert to N1--><path d="M912.787,181.4557 C933.1176,177.1487 956.0523,172.3249 977,168 C1020.4621,159.0268 1069.4682,149.1521 1107.2877,141.5841 " fill="none" id="Apply special offert-N1" style="stroke:#A80036;stroke-width:1.0;stroke-dasharray:7.0,7.0;"/><!--MD5=[a9553d499345991bd74a5c8573d9aaaf]
link N1 to Manage E-Wallet--><path d="M1333.0629,129 C1354.2393,129 1375.0225,129 1393.6625,129 " fill="none" id="N1-Manage E-Wallet" style="stroke:#A80036;stroke-width:1.0;stroke-dasharray:7.0,7.0;"/><!--MD5=[cac2dd8d1614c4e6f620697312e1506e]
link CustomerManager to Create new fidelity card--><path d="M617.615,159.7129 C646.264,168.3794 678.3714,182.6797 700,206 C760.886,271.6482 705.2466,327.9404 761,398 C772.2205,412.0997 788.1153,423.3621 803.5965,431.9314 " fill="none" id="CustomerManager-to-Create new fidelity card" style="stroke:#A80036;stroke-width:1.0;"/><polygon fill="#A80036" points="808.3821,434.5045,802.3496,426.7193,803.9783,432.1366,798.561,433.7653,808.3821,434.5045" style="stroke:#A80036;stroke-width:1.0;"/><!--MD5=[dca2efe040df7247284d95c4206b916f]
link Create new fidelity card to Insert data customer--><path d="M854,474.085 C854,487.8613 854,505.9072 854,520.347 " fill="none" id="Create new fidelity card-to-Insert data customer" style="stroke:#A80036;stroke-width:1.0;stroke-dasharray:7.0,7.0;"/><polygon fill="#A80036" points="854,525.4892,858,516.4892,854,520.4892,850,516.4892,854,525.4892" style="stroke:#A80036;stroke-width:1.0;"/><text fill="#000000" font-family="sans-serif" font-size="13" lengthAdjust="spacingAndGlyphs" textLength="45" x="820" y="504.3169">include</text><!--MD5=[eb533cc7dea9da130db856c6199d84c6]
link Generate new E-Wallet to Create new fidelity card--><path d="M854,380.6993 C854,394.266 854,412.1198 854,426.6911 " fill="none" id="Generate new E-Wallet-to-Create new fidelity card" style="stroke:#A80036;stroke-width:1.0;stroke-dasharray:7.0,7.0;"/><polygon fill="#A80036" points="854,431.8969,858,422.8969,854,426.8969,850,422.8969,854,431.8969" style="stroke:#A80036;stroke-width:1.0;"/><text fill="#000000" font-family="sans-serif" font-size="13" lengthAdjust="spacingAndGlyphs" textLength="51" x="817" y="410.8169">extends</text><!--MD5=[442e364626eb49f603ff948025ebecd4]
link Customer to Manage E-Wallet--><path d="M74.2562,77.9483 C112.1792,47.8608 176.4506,6 240.5,6 C240.5,6 240.5,6 1170.5,6 C1277.3407,6 1390.4437,74.9814 1440.5106,109.6264 " fill="none" id="Customer-to-Manage E-Wallet" style="stroke:#A80036;stroke-width:1.0;"/><polygon fill="#A80036" points="1444.8697,112.6665,1439.7761,104.2371,1440.7687,109.8062,1435.1996,110.7988,1444.8697,112.6665" style="stroke:#A80036;stroke-width:1.0;"/><!--MD5=[a52dce52df93924207bad96f2ecd0b47]
@startuml
left to right direction

actor Customer
actor CustomerManager
actor Employ

Customer - -> (Fidelity Card Request)
Customer - -> (Request to use fidelity card)
(Fidelity Card Request) - -> CustomerManager
(Request to use fidelity card) - -> CustomerManager
CustomerManager - -> Employ
CustomerManager -down-> (Apply special offert)
(Apply special offert) .> (Update Fidelity points) : include
(Apply special offert) .> (Manage E-Wallet) : extends

note "Vouchers can be generated to load on E-Wallet." as N1
(Apply special offert) .. N1
N1 .. (Manage E-Wallet)

note right of (Request to use fidelity card)
  Use points of fidelity card for special offert 
  or generate shopping vouchers
end note

CustomerManager - -> (Create new fidelity card)
(Create new fidelity card) .> (Insert data customer) : include
(Generate new E-Wallet) .> (Create new fidelity card) : extends

Customer - -> (Manage E-Wallet)
@enduml

PlantUML version 1.2020.22(Sun Dec 06 09:36:27 UTC 2020)
(GPL source distribution)
Java Runtime: OpenJDK Runtime Environment
JVM: OpenJDK 64-Bit Server VM
Default Encoding: UTF-8
Language: en
Country: US
--></g></svg>