<?xml version="1.0" encoding="UTF-8" standalone="no"?><svg xmlns="http://www.w3.org/2000/svg" xmlns:xlink="http://www.w3.org/1999/xlink" contentScriptType="application/ecmascript" contentStyleType="text/css" height="697px" preserveAspectRatio="none" style="width:1544px;height:697px;" version="1.1" viewBox="0 0 1544 697" width="1544px" zoomAndPan="magnify"><defs><filter height="300%" id="f1a6qrzsk5uuz" width="300%" x="-1" y="-1"><feGaussianBlur result="blurOut" stdDeviation="2.0"/><feColorMatrix in="blurOut" result="blurOut2" type="matrix" values="0 0 0 0 0 0 0 0 0 0 0 0 0 0 0 0 0 0 .4 0"/><feOffset dx="4.0" dy="4.0" in="blurOut2" result="blurOut3"/><feBlend in="SourceGraphic" in2="blurOut3" mode="normal"/></filter></defs><g><!--MD5=[626ff6ece95d570cc2519224441d60ff]
entity Cashier--><ellipse cx="847" cy="46.67" fill="#FEFECE" filter="url(#f1a6qrzsk5uuz)" rx="8" ry="8" style="stroke:#A80036;stroke-width:1.5;"/><path d="M847,54.67 L847,81.67 M834,62.67 L860,62.67 M847,81.67 L834,96.67 M847,81.67 L860,96.67 " fill="none" filter="url(#f1a6qrzsk5uuz)" style="stroke:#A80036;stroke-width:1.5;"/><text fill="#000000" font-family="sans-serif" font-size="14" lengthAdjust="spacing" textLength="49" x="822.5" y="116.7032">Cashier</text><!--MD5=[116f8ee59c2889e330cb936f2393bbd5]
entity Credit Card System--><ellipse cx="1332" cy="46.67" fill="#FEFECE" filter="url(#f1a6qrzsk5uuz)" rx="8" ry="8" style="stroke:#A80036;stroke-width:1.5;"/><path d="M1332,54.67 L1332,81.67 M1319,62.67 L1345,62.67 M1332,81.67 L1319,96.67 M1332,81.67 L1345,96.67 " fill="none" filter="url(#f1a6qrzsk5uuz)" style="stroke:#A80036;stroke-width:1.5;"/><text fill="#000000" font-family="sans-serif" font-size="14" lengthAdjust="spacing" textLength="123" x="1270.5" y="116.7032">Credit Card System</text><!--MD5=[4a7446545a15a9101f4a0df6ebde518b]
entity Inventory and Catalog--><ellipse cx="1166" cy="46.67" fill="#FEFECE" filter="url(#f1a6qrzsk5uuz)" rx="8" ry="8" style="stroke:#A80036;stroke-width:1.5;"/><path d="M1166,54.67 L1166,81.67 M1153,62.67 L1179,62.67 M1166,81.67 L1153,96.67 M1166,81.67 L1179,96.67 " fill="none" filter="url(#f1a6qrzsk5uuz)" style="stroke:#A80036;stroke-width:1.5;"/><text fill="#000000" font-family="sans-serif" font-size="14" lengthAdjust="spacing" textLength="139" x="1096.5" y="116.7032">Inventory and Catalog</text><ellipse cx="984.1203" cy="78.4941" fill="#FEFECE" filter="url(#f1a6qrzsk5uuz)" rx="77.1203" ry="17.8241" style="stroke:#A80036;stroke-width:1.5;"/><text fill="#000000" font-family="sans-serif" font-size="14" lengthAdjust="spacing" textLength="107" x="928.2783" y="82.8556">Sale Transaction</text><ellipse cx="142.035" cy="277.977" fill="#FEFECE" filter="url(#f1a6qrzsk5uuz)" rx="89.535" ry="20.307" style="stroke:#A80036;stroke-width:1.5;"/><text fill="#000000" font-family="sans-serif" font-size="14" lengthAdjust="spacing" textLength="137" x="73.535" y="281.7055">Update Fidelity Points</text><ellipse cx="1435.9525" cy="277.9605" fill="#FEFECE" filter="url(#f1a6qrzsk5uuz)" rx="96.9525" ry="21.7905" style="stroke:#A80036;stroke-width:1.5;"/><text fill="#000000" font-family="sans-serif" font-size="14" lengthAdjust="spacing" textLength="154" x="1358.9525" y="281.689">Handle Payment Method</text><ellipse cx="984.0785" cy="278.3857" fill="#FEFECE" filter="url(#f1a6qrzsk5uuz)" rx="79.0785" ry="18.2157" style="stroke:#A80036;stroke-width:1.5;"/><text fill="#000000" font-family="sans-serif" font-size="14" lengthAdjust="spacing" textLength="112" x="926.6751" y="282.5095">Handle Shop Cart</text><ellipse cx="1194.1119" cy="509.8924" fill="#FEFECE" filter="url(#f1a6qrzsk5uuz)" rx="69.1119" ry="16.2224" style="stroke:#A80036;stroke-width:1.5;"/><text fill="#000000" font-family="sans-serif" font-size="14" lengthAdjust="spacing" textLength="85" x="1148.6119" y="514.409">Scan Product</text><ellipse cx="1006.855" cy="509.841" fill="#FEFECE" filter="url(#f1a6qrzsk5uuz)" rx="76.355" ry="17.671" style="stroke:#A80036;stroke-width:1.5;"/><text fill="#000000" font-family="sans-serif" font-size="14" lengthAdjust="spacing" textLength="105" x="951.6233" y="514.2955">Remove Product</text><ellipse cx="629.8923" cy="509.5485" fill="#FEFECE" filter="url(#f1a6qrzsk5uuz)" rx="87.3923" ry="19.8785" style="stroke:#A80036;stroke-width:1.5;"/><text fill="#000000" font-family="sans-serif" font-size="14" lengthAdjust="spacing" textLength="132" x="563.8923" y="513.277">Handle Total Amount</text><ellipse cx="1193.7537" cy="658.4207" fill="#FEFECE" filter="url(#f1a6qrzsk5uuz)" rx="66.7537" ry="15.7507" style="stroke:#A80036;stroke-width:1.5;"/><text fill="#000000" font-family="sans-serif" font-size="14" lengthAdjust="spacing" textLength="78" x="1151.7537" y="662.9373">Add Product</text><ellipse cx="1200.7928" cy="278.0286" fill="#FEFECE" filter="url(#f1a6qrzsk5uuz)" rx="102.2928" ry="22.8586" style="stroke:#A80036;stroke-width:1.5;"/><text fill="#000000" font-family="sans-serif" font-size="14" lengthAdjust="spacing" textLength="166" x="1117.7928" y="281.7571">Insert Code with Keyboard</text><ellipse cx="629.8351" cy="278.037" fill="#FEFECE" filter="url(#f1a6qrzsk5uuz)" rx="82.3351" ry="18.867" style="stroke:#A80036;stroke-width:1.5;"/><text fill="#000000" font-family="sans-serif" font-size="14" lengthAdjust="spacing" textLength="120" x="569.8351" y="281.7655">Apply Fidelity Offer</text><!--MD5=[473de1eca52ab1c0ec8c5a88a5ed9aca]
entity Return Coupon--><ellipse cx="801" cy="477.67" fill="#FEFECE" filter="url(#f1a6qrzsk5uuz)" rx="8" ry="8" style="stroke:#A80036;stroke-width:1.5;"/><path d="M801,485.67 L801,512.67 M788,493.67 L814,493.67 M801,512.67 L788,527.67 M801,512.67 L814,527.67 " fill="none" filter="url(#f1a6qrzsk5uuz)" style="stroke:#A80036;stroke-width:1.5;"/><text fill="#000000" font-family="sans-serif" font-size="14" lengthAdjust="spacing" textLength="97" x="752.5" y="547.7032">Return Coupon</text><path d="M701,629.17 L701,688.2247 A0,0 0 0 0 701,688.2247 L901,688.2247 A0,0 0 0 0 901,688.2247 L901,639.17 L891,629.17 L805,629.17 L801,551.23 L797,629.17 L701,629.17 A0,0 0 0 0 701,629.17 " fill="#FBFB77" filter="url(#f1a6qrzsk5uuz)" style="stroke:#A80036;stroke-width:1.0;"/><path d="M891,629.17 L891,639.17 L901,639.17 L891,629.17 " fill="#FBFB77" style="stroke:#A80036;stroke-width:1.0;"/><text fill="#000000" font-family="sans-serif" font-size="13" lengthAdjust="spacing" textLength="170" x="707" y="647.6651">Different from Fidelity Coupon</text><text fill="#000000" font-family="sans-serif" font-size="13" lengthAdjust="spacing" textLength="179" x="707" y="664.0167">because the latter is generated</text><text fill="#000000" font-family="sans-serif" font-size="13" lengthAdjust="spacing" textLength="112" x="707" y="680.3682">at the cash register</text><ellipse cx="356.9659" cy="278.0632" fill="#FEFECE" filter="url(#f1a6qrzsk5uuz)" rx="89.9659" ry="20.3932" style="stroke:#A80036;stroke-width:1.5;"/><text fill="#000000" font-family="sans-serif" font-size="14" lengthAdjust="spacing" textLength="138" x="287.9659" y="281.7917">Apply Fidelity Coupon</text><ellipse cx="247.1476" cy="509.5995" fill="#FEFECE" filter="url(#f1a6qrzsk5uuz)" rx="72.6476" ry="16.9295" style="stroke:#A80036;stroke-width:1.5;"/><text fill="#000000" font-family="sans-serif" font-size="14" lengthAdjust="spacing" textLength="95" x="196.6476" y="514.1161">Remove Points</text><ellipse cx="66.1685" cy="509.7538" fill="#FEFECE" filter="url(#f1a6qrzsk5uuz)" rx="60.1685" ry="15.5838" style="stroke:#A80036;stroke-width:1.5;"/><text fill="#000000" font-family="sans-serif" font-size="14" lengthAdjust="spacing" textLength="68" x="29.1685" y="514.2704">Add Points</text><!--MD5=[135b4830de0cd15622d759ecae497efd]
link Cashier to Sale Transaction--><path d="M871.62,78.67 C881.59,78.67 891.55,78.67 901.52,78.67 " fill="none" id="Cashier-to-Sale Transaction" style="stroke:#A80036;stroke-width:1.0;"/><polygon fill="#A80036" points="906.74,78.67,897.74,74.67,901.74,78.67,897.74,82.67,906.74,78.67" style="stroke:#A80036;stroke-width:1.0;"/><!--MD5=[4ab5fca9012adec590fcbf7a01601292]
link Sale Transaction to Credit Card System--><path d="M1009.48,61.52 C1031.46,47.83 1064.6,29.73 1096.5,22.17 C1156.61,7.92 1175.88,6 1235.5,22.17 C1246.22,25.08 1256.98,29.51 1267.21,34.64 " fill="none" id="Sale Transaction-to-Credit Card System" style="stroke:#A80036;stroke-width:1.0;"/><polygon fill="#A80036" points="1271.87,37.04,1265.7164,29.3502,1267.4297,34.7413,1262.0386,36.4546,1271.87,37.04" style="stroke:#A80036;stroke-width:1.0;"/><!--MD5=[c98c17055adf0d7b5e958ebdebebf06c]
link Sale Transaction to Inventory and Catalog--><path d="M1061.14,78.67 C1071.14,78.67 1081.14,78.67 1091.14,78.67 " fill="none" id="Sale Transaction-to-Inventory and Catalog" style="stroke:#A80036;stroke-width:1.0;"/><polygon fill="#A80036" points="1096.36,78.67,1087.36,74.67,1091.36,78.67,1087.36,82.67,1096.36,78.67" style="stroke:#A80036;stroke-width:1.0;"/><!--MD5=[04e4353952da41ed6fa9ef64b1a7d7b7]
reverse link Sale Transaction to Update Fidelity Points--><path d="M947.26,97.32 C929.9,105.15 908.7,113.97 889,120.17 C872.48,125.37 384.46,226.84 206.3,263.83 " fill="none" id="Sale Transaction-backto-Update Fidelity Points" style="stroke:#A80036;stroke-width:1.0;stroke-dasharray:7.0,7.0;"/><polygon fill="#A80036" points="952.06,95.15,942.2115,95.2328,947.5082,97.219,945.5219,102.5157,952.06,95.15" style="stroke:#A80036;stroke-width:1.0;"/><text fill="#000000" font-family="sans-serif" font-size="13" lengthAdjust="spacing" textLength="53" x="793" y="164.6651">«extend»</text><path d="M743,173.5216 L743,215.5216 L892,215.5216 L892,183.5216 L882,173.5216 L743,173.5216 " fill="#FBFB77" filter="url(#f1a6qrzsk5uuz)" style="stroke:#A80036;stroke-width:1.0;"/><path d="M882,173.5216 L882,183.5216 L892,183.5216 L882,173.5216 " fill="#FBFB77" style="stroke:#A80036;stroke-width:1.0;"/><text fill="#000000" font-family="sans-serif" font-size="13" lengthAdjust="spacing" textLength="128" x="749" y="192.0167">Codition: Fidelity Card</text><text fill="#000000" font-family="sans-serif" font-size="13" lengthAdjust="spacing" textLength="46" x="749" y="208.3682">required</text><!--MD5=[9b47c8188d3a91f189ace759a2230466]
link Sale Transaction to Handle Payment Method--><path d="M1018.72,94.84 C1098.84,129.85 1296.76,216.33 1388.23,256.3 " fill="none" id="Sale Transaction-to-Handle Payment Method" style="stroke:#A80036;stroke-width:1.0;stroke-dasharray:7.0,7.0;"/><polygon fill="#A80036" points="1393.04,258.4,1386.3895,251.1356,1388.4569,256.4012,1383.1914,258.4685,1393.04,258.4" style="stroke:#A80036;stroke-width:1.0;"/><text fill="#000000" font-family="sans-serif" font-size="13" lengthAdjust="spacing" textLength="55" x="1315" y="193.1651">«include»</text><!--MD5=[655707ebe58be0d8339498f02151c8c8]
link Sale Transaction to Handle Shop Cart--><path d="M984,96.85 C984,132.69 984,215.37 984,255.09 " fill="none" id="Sale Transaction-to-Handle Shop Cart" style="stroke:#A80036;stroke-width:1.0;stroke-dasharray:7.0,7.0;"/><polygon fill="#A80036" points="984,260.17,988,251.17,984,255.17,980,251.17,984,260.17" style="stroke:#A80036;stroke-width:1.0;"/><text fill="#000000" font-family="sans-serif" font-size="13" lengthAdjust="spacing" textLength="55" x="985" y="193.1651">«include»</text><!--MD5=[f9b08f1e7dc86d3cab24f9054c4ca844]
link Handle Shop Cart to Scan Product--><path d="M1015.21,294.82 C1031.34,303.93 1050.6,316.51 1065,331.17 C1104.15,371.03 1097.59,393.39 1131,438.17 C1144.91,456.81 1162.72,476.41 1175.85,490.2 " fill="none" id="Handle Shop Cart-to-Scan Product" style="stroke:#A80036;stroke-width:1.0;stroke-dasharray:7.0,7.0;"/><polygon fill="#A80036" points="1179.42,493.93,1176.0896,484.6613,1175.9639,490.3168,1170.3084,490.1911,1179.42,493.93" style="stroke:#A80036;stroke-width:1.0;"/><text fill="#000000" font-family="sans-serif" font-size="13" lengthAdjust="spacing" textLength="55" x="1132" y="390.1651">«include»</text><!--MD5=[bccb87d0a4d41d3254b140b0518beecd]
link Handle Shop Cart to Remove Product--><path d="M985.73,296.42 C989.85,337.59 1000.27,441.54 1004.82,486.92 " fill="none" id="Handle Shop Cart-to-Remove Product" style="stroke:#A80036;stroke-width:1.0;stroke-dasharray:7.0,7.0;"/><polygon fill="#A80036" points="1005.34,492.15,1008.422,482.7958,1004.8411,487.175,1000.4619,483.5941,1005.34,492.15" style="stroke:#A80036;stroke-width:1.0;"/><text fill="#000000" font-family="sans-serif" font-size="13" lengthAdjust="spacing" textLength="55" x="1001" y="390.1651">«include»</text><!--MD5=[e8a1293d7932f5bc98e1efdf9bd61809]
link Handle Shop Cart to Handle Total Amount--><path d="M961.66,295.47 C949.75,304.95 935.44,317.67 925,331.17 C892.43,373.32 913.07,405.5 871,438.17 C822.11,476.13 794.27,450.31 735,468.17 C714.99,474.2 693.38,482.26 674.99,489.6 " fill="none" id="Handle Shop Cart-to-Handle Total Amount" style="stroke:#A80036;stroke-width:1.0;stroke-dasharray:7.0,7.0;"/><polygon fill="#A80036" points="669.89,491.65,679.7319,492.0214,674.5324,489.793,676.7607,484.5936,669.89,491.65" style="stroke:#A80036;stroke-width:1.0;"/><text fill="#000000" font-family="sans-serif" font-size="13" lengthAdjust="spacing" textLength="55" x="926" y="390.1651">«include»</text><!--MD5=[4c7f883dc02cdf65934a6b62c8d853ef]
link Scan Product to Add Product--><path d="M1194,525.85 C1194,552.37 1194,607.15 1194,637.07 " fill="none" id="Scan Product-to-Add Product" style="stroke:#A80036;stroke-width:1.0;stroke-dasharray:7.0,7.0;"/><polygon fill="#A80036" points="1194,642.35,1198,633.35,1194,637.35,1190,633.35,1194,642.35" style="stroke:#A80036;stroke-width:1.0;"/><text fill="#000000" font-family="sans-serif" font-size="13" lengthAdjust="spacing" textLength="55" x="1195" y="595.6651">«include»</text><!--MD5=[867f49782617fc84c010b577d6e680fd]
link Insert Code with Keyboard to Scan Product--><path d="M1200.33,301.18 C1198.97,345.61 1195.93,445.46 1194.62,488.4 " fill="none" id="Insert Code with Keyboard-to-Scan Product" style="stroke:#A80036;stroke-width:1.0;stroke-dasharray:7.0,7.0;"/><polygon fill="#A80036" points="1194.46,493.59,1198.7407,484.7201,1194.6171,488.5925,1190.7447,484.4688,1194.46,493.59" style="stroke:#A80036;stroke-width:1.0;"/><text fill="#000000" font-family="sans-serif" font-size="13" lengthAdjust="spacing" textLength="53" x="1295" y="370.1651">«extend»</text><path d="M1204,379.0216 L1204,405.0216 L1435,405.0216 L1435,389.0216 L1425,379.0216 L1204,379.0216 " fill="#FBFB77" filter="url(#f1a6qrzsk5uuz)" style="stroke:#A80036;stroke-width:1.0;"/><path d="M1425,379.0216 L1425,389.0216 L1435,389.0216 L1425,379.0216 " fill="#FBFB77" style="stroke:#A80036;stroke-width:1.0;"/><text fill="#000000" font-family="sans-serif" font-size="13" lengthAdjust="spacing" textLength="210" x="1210" y="397.5167">Condition: Bar Code not Recognized</text><!--MD5=[75ae5bc604a594fd890afe14b96cff70]
link Apply Fidelity Offer to Handle Total Amount--><path d="M628.69,297.45 C628.04,307.41 627.32,319.96 627,331.17 C625.63,378.71 625.99,390.63 627,438.17 C627.33,453.52 628.05,470.75 628.71,484.32 " fill="none" id="Apply Fidelity Offer-to-Handle Total Amount" style="stroke:#A80036;stroke-width:1.0;stroke-dasharray:7.0,7.0;"/><polygon fill="#A80036" points="628.97,489.53,632.5287,480.3465,628.7274,484.5359,624.5381,480.7347,628.97,489.53" style="stroke:#A80036;stroke-width:1.0;"/><text fill="#000000" font-family="sans-serif" font-size="13" lengthAdjust="spacing" textLength="53" x="720.5" y="353.6651">«extend»</text><path d="M632,362.5216 L632,421.5216 L858,421.5216 L858,372.5216 L848,362.5216 L632,362.5216 " fill="#FBFB77" filter="url(#f1a6qrzsk5uuz)" style="stroke:#A80036;stroke-width:1.0;"/><path d="M848,362.5216 L848,372.5216 L858,372.5216 L848,362.5216 " fill="#FBFB77" style="stroke:#A80036;stroke-width:1.0;"/><text fill="#000000" font-family="sans-serif" font-size="13" lengthAdjust="spacing" textLength="201" x="638" y="381.0167">Condition: 1-Fidelity Card Required</text><text fill="#000000" font-family="sans-serif" font-size="13" lengthAdjust="spacing" textLength="124" x="638" y="397.3682">2-must have products</text><text fill="#000000" font-family="sans-serif" font-size="13" lengthAdjust="spacing" textLength="132" x="638" y="413.7198">with fidelity offer in cart</text><!--MD5=[ce80986fe6fc564fba18276600741cd8]
link Return Coupon to Handle Total Amount--><path d="M752.4,509.67 C742.5,509.67 732.59,509.67 722.68,509.67 " fill="none" id="Return Coupon-to-Handle Total Amount" style="stroke:#A80036;stroke-width:1.0;"/><polygon fill="#A80036" points="717.5,509.67,726.5,513.67,722.5,509.67,726.5,505.67,717.5,509.67" style="stroke:#A80036;stroke-width:1.0;"/><!--MD5=[ff2e522299b47bdc22789f02f09aa4d1]
link Apply Fidelity Coupon to Handle Total Amount--><path d="M354.54,298.85 C351.56,331.99 350.72,399.14 386,438.17 C424.45,480.71 486.81,498.22 538.86,505.16 " fill="none" id="Apply Fidelity Coupon-to-Handle Total Amount" style="stroke:#A80036;stroke-width:1.0;stroke-dasharray:7.0,7.0;"/><polygon fill="#A80036" points="543.86,505.8,535.4347,500.6996,538.8997,505.171,534.4283,508.6361,543.86,505.8" style="stroke:#A80036;stroke-width:1.0;"/><text fill="#000000" font-family="sans-serif" font-size="13" lengthAdjust="spacing" textLength="53" x="476" y="345.6651">«extend»</text><path d="M391,354.5216 L391,429.5216 L610,429.5216 L610,364.5216 L600,354.5216 L391,354.5216 " fill="#FBFB77" filter="url(#f1a6qrzsk5uuz)" style="stroke:#A80036;stroke-width:1.0;"/><path d="M600,354.5216 L600,364.5216 L610,364.5216 L600,354.5216 " fill="#FBFB77" style="stroke:#A80036;stroke-width:1.0;"/><text fill="#000000" font-family="sans-serif" font-size="13" lengthAdjust="spacing" textLength="198" x="397" y="373.0167">Condition: Customer must request</text><text fill="#000000" font-family="sans-serif" font-size="13" lengthAdjust="spacing" textLength="126" x="397" y="389.3682">a Fidelity Coupon and</text><text fill="#000000" font-family="sans-serif" font-size="13" lengthAdjust="spacing" textLength="189" x="397" y="405.7198">he must have the right amount of</text><text fill="#000000" font-family="sans-serif" font-size="13" lengthAdjust="spacing" textLength="83" x="397" y="422.0714">Fidelity Points</text><!--MD5=[8b1a94fb8a75328ff49eba429cddd9c0]
link Apply Fidelity Coupon to Remove Points--><path d="M303.74,294.78 C285.91,302.75 267.83,314.41 257,331.17 C225.7,379.6 234.76,451.87 241.94,487.39 " fill="none" id="Apply Fidelity Coupon-to-Remove Points" style="stroke:#A80036;stroke-width:1.0;stroke-dasharray:7.0,7.0;"/><polygon fill="#A80036" points="242.98,492.36,245.0458,482.7302,241.9528,487.4666,237.2164,484.3737,242.98,492.36" style="stroke:#A80036;stroke-width:1.0;"/><text fill="#000000" font-family="sans-serif" font-size="13" lengthAdjust="spacing" textLength="55" x="258" y="390.1651">«include»</text><!--MD5=[e9110b7ee10c8d9fe1351e4ddf6c8d35]
link Update Fidelity Points to Add Points--><path d="M100.09,296.5 C85.66,304.74 71.1,316.14 63,331.17 C35.52,382.16 50.01,453.95 59.65,488.52 " fill="none" id="Update Fidelity Points-to-Add Points" style="stroke:#A80036;stroke-width:1.0;stroke-dasharray:7.0,7.0;"/><polygon fill="#A80036" points="61.15,493.74,62.5236,483.9874,59.7764,488.9324,54.8314,486.1852,61.15,493.74" style="stroke:#A80036;stroke-width:1.0;"/><text fill="#000000" font-family="sans-serif" font-size="13" lengthAdjust="spacing" textLength="55" x="64" y="390.1651">«include»</text><!--MD5=[43665ccbeeb1cf96bcbab03f15f9feff]
link Update Fidelity Points to Remove Points--><path d="M139.69,298.68 C136.9,330.13 135.3,393.1 160,438.17 C172.42,460.84 195.4,478.97 214.63,491.17 " fill="none" id="Update Fidelity Points-to-Remove Points" style="stroke:#A80036;stroke-width:1.0;stroke-dasharray:7.0,7.0;"/><polygon fill="#A80036" points="218.92,493.84,213.3834,485.6947,214.672,491.2028,209.1639,492.4915,218.92,493.84" style="stroke:#A80036;stroke-width:1.0;"/><text fill="#000000" font-family="sans-serif" font-size="13" lengthAdjust="spacing" textLength="55" x="161" y="390.1651">«include»</text><!--MD5=[635ed153dc9a952f40351a5f45dd675f]
@startuml Sale Transaction
top to bottom direction
actor :Cashier:
actor :Credit Card System: 
actor :Inventory and Catalog:

Cashier -> (Sale Transaction)
(Sale Transaction) -> :Credit Card System:
(Sale Transaction) -> :Inventory and Catalog:
(Sale Transaction) <.. (Update Fidelity Points) : <<extend>>
note on link
Codition: Fidelity Card
required
end note
(Sale Transaction) ..> (Handle Payment Method) : <<include>>
(Sale Transaction) ..> (Handle Shop Cart) : <<include>>


(Handle Shop Cart) ..> (Scan Product) : <<include>>
(Handle Shop Cart) ..> (Remove Product) : <<include>>
(Handle Shop Cart) ..> (Handle Total Amount) : <<include>>

(Scan Product) ..> (Add Product) : <<include>>
(Insert Code with Keyboard) ..> (Scan Product) : <<extend>>
note on link: Condition: Bar Code not Recognized

(Apply Fidelity Offer) ..> (Handle Total Amount) : <<extend>>
note on link 
Condition: 1-Fidelity Card Required 
2-must have products 
with fidelity offer in cart
end note

:Return Coupon: -> (Handle Total Amount)
note bottom of :Return Coupon:
Different from Fidelity Coupon
because the latter is generated
at the cash register
end note

(Apply Fidelity Coupon) ..> (Handle Total Amount) : <<extend>>
note on link
Condition: Customer must request
a Fidelity Coupon and
he must have the right amount of
Fidelity Points
end note
(Apply Fidelity Coupon) ..> (Remove Points) : <<include>>


(Update Fidelity Points) ..> (Add Points) : <<include>>
(Update Fidelity Points) ..> (Remove Points) : <<include>>

@enduml

PlantUML version 1.2021.00(Sun Jan 10 11:25:05 CET 2021)
(GPL source distribution)
Java Runtime: OpenJDK Runtime Environment
JVM: OpenJDK 64-Bit Server VM
Default Encoding: Cp1252
Language: it
Country: IT
--></g></svg>